<?xml version="1.0" encoding="utf-8"?>
<!-- Generator: Adobe Illustrator 19.1.0, SVG Export Plug-In . SVG Version: 6.00 Build 0)  -->
<svg version="1.1" id="Calque_1" xmlns="http://www.w3.org/2000/svg" xmlns:xlink="http://www.w3.org/1999/xlink" x="0px" y="0px"
	 viewBox="0 0 552.5 249.6" style="enable-background:new 0 0 552.5 249.6;" xml:space="preserve">
<style type="text/css">
	.st0{fill:#80AE36;}
	.st1{fill:#FFFFFF;}
	.st2{fill:#EC701F;}
	.st3{fill:#F4A110;}
	.st4{fill:#2A4625;}
</style>
<g>
	<path class="st0" d="M200.8,77.5c0,0,3.1,2.3,5,0"/>
	<path class="st0" d="M184.8,49.4c0,0,1.2-11.3-15.8-32.2c0,0-9.1-11.8-10.8-12.3c0,0-0.4-4.3,3.3-2.8c0,0,14.6,11.2,27.1,46
		C188.7,48.1,187.1,49.9,184.8,49.4z"/>
	<path class="st0" d="M166.9,16.1c0,0-0.1,3.2-2.9,6.6c0,0-28.1-16-38,23.1c-2,7.9-1.8,26.5-9.3,31.2c0,0,55.3,5.4,49.1-52.3
		c0,0,2.9-5.3,3.2-6.6L166.9,16.1z"/>
	<path class="st0" d="M173.9,15.7c0,0,3.7-0.7,6.1,0.5c0,0,30.6-22.4,47.3,17.1c0,0-6.8-3.5-18.1,1.5c0,0-25.6,7.5-30.8-17.5
		c0,0-3.6-0.6-4.5-0.3L173.9,15.7z"/>
</g>
<g>
	<path class="st1" d="M317.2,171.5L502,23.7c0,0,50,70.6,13.6,138.5c0,0-63.6,95.1-149.4,65.1C366.2,227.2,330.9,205.1,317.2,171.5z
		"/>
	<path class="st2" d="M502,23.7c0,0,96.7,69.4,17,174.1c0,0-33.4,52.4-105.2,49.8c0,0-103.2-4.2-96.6-76.1c0,0,36.6,96,129.2,49.7
		C492.2,198.2,569.4,142.6,502,23.7z"/>
	<path class="st3" d="M432,98.2c17.2-12.3,47.3-48.8,60.9-58.8c0,0,41.3,9.1,18.1,68.1l-82.3-0.2C428.7,107.3,421.9,105.5,432,98.2z
		"/>
	<path class="st3" d="M510.2,115.2c0,0,11.7,39.7-34.1,63.5l-44.3-53.8c0,0-4.6-9,9-10.5L510.2,115.2z"/>
	<path class="st3" d="M401.2,147.1c0,0,1.7-5.2,4-6.5c0,0,1.4-6.9,5.1-7.5c0,0,4.2-1.1,3.9,10l11.4,67.4c0,0-32,26.4-46.9,0.1
		L401.2,147.1z"/>
	<path class="st3" d="M396.3,125.1c0,0-15.5-0.1-31.8,17.9c0,0-24.8,17.9-28.3,23.9c0,0-8.6,42.7,36.5,43.4l29.8-79.3
		C402.4,131,403.1,124.8,396.3,125.1z"/>
	<path class="st3" d="M432.6,209.2c0,0,21.9,7.2,37.9-25c0,0-40.5-52-45.5-52.3c0,0-6.1-0.2-4.4,7.5L432.6,209.2z"/>
</g>
<g>
	<path class="st4" d="M8.4,70.4c0.1-1.3,0.8-2.2,2.1-2.8c1.3-0.5,2.6-0.7,4.1-0.6c1.5,0.1,2.8,0.5,4,1.3c1.2,0.7,1.7,1.7,1.6,2.9
		l-2.7,38.3c2-6.5,4.3-12.6,6.9-18.3c2.6-5.7,5.4-10.5,8.5-14.4c3.1-3.9,6.4-6.7,9.9-8.4c3.5-1.7,7.4-1.7,11.6-0.2
		c3.6,1.3,6.2,3.9,7.9,7.7c1.7,3.8,2.7,8.4,3.1,13.8c0.4,5.3,0.2,11.2-0.5,17.6c-0.7,6.4-1.6,12.9-2.7,19.5
		c-1.1,6.6-2.2,13-3.4,19.2c-1.2,6.2-2.2,11.9-2.9,17c-0.7,5.1-1.1,9.4-1,12.9c0.1,3.5,0.8,5.6,2.2,6.5c1.7,1,3.4,0.7,5.2-0.9
		c1.8-1.6,3.6-3.9,5.4-7s3.6-6.8,5.3-11.1c1.7-4.3,3.3-8.7,4.7-13.2c1.4-4.6,2.6-9,3.6-13.4c1-4.4,1.7-8.2,2.1-11.4
		c0.1-1,0.5-1.7,1.2-2.2c0.7-0.5,1.3-0.7,2-0.6c0.7,0.1,1.2,0.4,1.6,0.9c0.4,0.5,0.6,1.3,0.4,2.2c-0.2,1.9-0.8,4.9-1.5,8.8
		c-0.8,4-1.8,8.3-3.1,12.9c-1.3,4.7-2.9,9.4-4.7,14.3c-1.8,4.9-3.8,9.3-6.1,13.2c-2.3,4-4.8,7.2-7.6,9.6c-2.8,2.5-5.8,3.6-8.9,3.3
		c-4.8-0.4-8.3-2.2-10.6-5.5c-2.3-3.3-3.7-7.5-4.2-12.7c-0.5-5.2-0.4-11,0.4-17.4c0.8-6.5,1.9-13.2,3.2-20.1
		c1.3-6.9,2.8-13.7,4.3-20.3c1.6-6.7,2.8-12.7,3.6-18.2c0.8-5.5,1.2-10,1-13.8c-0.2-3.7-1.3-6.1-3.3-7c-2.5-1.2-5.1-0.6-7.7,1.9
		c-2.6,2.5-5.2,6.2-7.8,11.1c-2.6,5-5,11-7.4,18.1c-2.3,7.1-4.5,14.7-6.5,22.7c-2,8.1-3.7,16.4-5.2,25c-1.5,8.6-2.6,16.9-3.3,24.9
		c0,1-0.6,1.6-1.8,2.1c-1.2,0.4-2.5,0.6-3.8,0.6c-1.3,0-2.5-0.2-3.7-0.7c-1.1-0.5-1.7-1.1-1.7-2c0-5.5,0.1-11.5,0.4-18.1
		c0.2-6.5,0.5-13.2,0.9-20.1c0.4-6.9,0.8-13.8,1.3-20.6c0.5-6.8,1-13.3,1.4-19.3C6.6,92.6,7,87.2,7.5,82.2
		C7.9,77.3,8.2,73.4,8.4,70.4z"/>
	<path class="st4" d="M168.9,126.3c-1,3.6-2.1,7.6-3.3,11.9c-1.3,4.3-2.7,8.7-4.4,13c-1.7,4.4-3.5,8.5-5.4,12.5
		c-1.9,4-4,7.4-6.2,10.3c-2.2,2.9-4.6,5.1-7,6.6c-2.5,1.5-5,1.9-7.6,1.3c-2.2-0.5-4-1.9-5.6-4.1c-1.6-2.3-2.8-5.2-3.6-8.9
		c-0.8-3.7-1.4-7.9-1.6-12.9c-0.2-4.9-0.1-10.3,0.4-16.2c-1.3,3.5-2.7,6.7-4.2,9.8c-1.5,3.1-3.1,5.7-4.9,8c-1.7,2.3-3.5,4.1-5.4,5.4
		c-1.9,1.3-3.8,1.9-5.8,1.6c-4-0.2-7-1.6-9.1-4.1c-2.1-2.5-3.5-5.7-4.3-9.4c-0.8-3.8-1.1-8.1-0.9-12.9c0.2-4.8,0.6-9.6,1.3-14.4
		c0.7-4.8,1.6-9.4,2.5-13.9c1-4.5,1.7-8.4,2.3-11.6c0.4-1.4,1.1-2.5,2.2-3.1c1.1-0.6,2.2-0.8,3.5-0.7c1.3,0.1,2.4,0.5,3.5,1.3
		c1.1,0.7,1.7,1.7,2,3.1c0.6,3.1,0.7,6.7,0.4,10.8c-0.3,4.1-0.8,8.3-1.5,12.6c-0.7,4.3-1.5,8.6-2.3,12.8c-0.8,4.2-1.4,8-1.8,11.4
		c-0.4,3.4-0.3,6.3,0.1,8.5c0.4,2.3,1.5,3.6,3.1,4c1.6,0.4,3.2-0.6,5-3s3.6-5.5,5.3-9.4c1.7-4,3.4-8.5,5.1-13.6
		c1.7-5.1,3.3-10.3,4.9-15.5c1.6-5.2,3-10.2,4.3-15c1.3-4.8,2.5-8.9,3.4-12.4c0.4-1.1,1.1-1.8,2.3-2.2c1.2-0.4,2.5-0.5,3.8-0.4
		c1.3,0.2,2.5,0.7,3.6,1.4c1.1,0.8,1.6,1.8,1.6,3.1c-0.4,5.6-1,11.6-2,17.8c-1,6.2-2,12.4-3,18.4c-1,6.1-2,11.9-3,17.5
		c-1,5.6-1.7,10.6-2.2,15c-0.5,4.4-0.6,8-0.4,10.9c0.2,2.9,0.9,4.6,2.1,5.2c1.3,0.7,2.8,0.3,4.5-1.2c1.7-1.5,3.4-3.7,5.3-6.5
		c1.9-2.8,3.7-6.1,5.5-9.9c1.8-3.8,3.5-7.7,5.1-11.8c1.6-4.1,3.1-8.1,4.3-12c1.3-4,2.2-7.5,3-10.6c0.2-1,0.7-1.6,1.3-2
		c0.7-0.4,1.3-0.4,1.9-0.3c0.6,0.2,1.1,0.6,1.5,1.3C169,124.5,169.1,125.3,168.9,126.3z"/>
	<path class="st4" d="M159.9,74.2c-1,0-1.7-0.3-2.2-0.8c-0.5-0.5-0.7-1.1-0.8-1.8c-0.1-0.7,0.1-1.3,0.5-1.9c0.4-0.6,1.1-0.9,2.1-0.9
		c2.5-0.2,5.5-0.5,8.8-0.8c3.4-0.3,7-0.6,10.8-0.8c0.6-3.5,1.2-6.9,1.7-10.2c0.5-3.3,1-6.3,1.3-9.1c0.2-1.4,0.9-2.5,2.1-3.2
		c1.1-0.7,2.4-1.1,3.7-1.2c1.3-0.1,2.5,0.3,3.6,1c1.1,0.7,1.7,1.9,1.8,3.4c0.1,2.9,0.2,5.8,0.2,8.9c0,3.1-0.1,6.2-0.4,9.4
		c6.4-0.5,12.3-0.9,17.8-1.2c5.5-0.3,9.8-0.6,12.8-0.8c0.8-0.1,1.5,0.1,1.9,0.6c0.4,0.5,0.7,1.2,0.7,1.9c0.1,0.7-0.1,1.4-0.5,2
		c-0.4,0.6-1,1-1.8,1.1c-1,0.1-2.5,0.3-4.5,0.4c-2,0.2-4.5,0.4-7.3,0.6c-2.8,0.2-5.9,0.5-9.3,0.8c-3.4,0.3-6.8,0.6-10.3,0.8
		c-0.7,10.8-1.7,21.7-3.1,32.6c-1.3,11-2.4,21-3.3,30.1c-0.9,9.1-1.3,16.7-1.1,22.7c0.2,6,1.5,9.4,3.9,10.1c2.2,0.6,4.4-0.8,6.8-4.1
		c2.4-3.4,4.8-8.5,7.1-15.6s4.6-15.8,6.8-26.3c2.2-10.5,4.2-22.6,6-36.2c0.1-1,0.8-1.7,2.1-2.2c1.3-0.5,2.6-0.7,4-0.7
		c1.4,0,2.6,0.2,3.6,0.7c1,0.5,1.5,1.2,1.3,2.2c1.2,1.4,2.9,2.6,5.1,3.5c2.2,0.9,4.6,1.6,7.3,2.2c2.6,0.6,5.4,1.2,8.2,1.7
		c2.8,0.5,5.4,1.2,7.8,2.1c2.4,0.8,4.4,1.9,6,3.2c1.6,1.3,2.6,3.1,3,5.2c0.2,1.9-0.1,5.3-1,10.2c-0.9,4.9-2.1,10.4-3.5,16.7
		c-1.4,6.3-3,12.9-4.6,19.8c-1.6,6.9-2.9,13.2-4,19c-1,5.8-1.6,10.6-1.6,14.6c-0.1,4,0.7,6.1,2.2,6.5c1.8,0.5,4-1.3,6.7-5.2
		c2.6-4,5.3-9.1,8-15.6s5.3-13.6,7.9-21.6c2.6-8,4.7-15.7,6.4-23.3c0.2-1,0.7-1.6,1.3-2c0.6-0.4,1.2-0.4,1.9-0.3
		c0.7,0.2,1.2,0.6,1.6,1.3c0.4,0.7,0.5,1.5,0.3,2.4c-1.1,4.3-2.3,9.2-3.8,14.6c-1.4,5.4-3,10.9-4.8,16.4c-1.7,5.5-3.7,10.8-5.8,15.8
		s-4.4,9.4-6.8,13.1c-2.4,3.7-5,6.5-7.7,8.5c-2.8,1.9-5.6,2.5-8.6,1.6c-4.8-1.3-8-4.3-9.7-9.1c-1.7-4.7-2.4-10.3-2.2-16.8
		c0.2-6.5,1.2-13.4,2.8-20.7c1.6-7.3,3.3-14.2,5.1-20.7c1.8-6.5,3.4-12,4.9-16.7c1.4-4.7,2.2-7.6,2.2-8.8c-0.1-1.2-1.1-2.2-2.8-3
		c-1.7-0.8-3.9-1.5-6.5-2.2c-2.6-0.7-5.3-1.4-8.3-2.2c-2.9-0.8-5.7-1.8-8.2-3c-2.8,16.2-5.7,29.7-8.7,40.5s-6.3,19.4-9.7,25.8
		c-3.4,6.4-7,10.8-10.7,13.1c-3.7,2.3-7.6,3-11.5,2.1c-3.7-0.8-6.7-3-8.8-6.5c-2.2-3.5-3.7-7.8-4.6-13c-0.9-5.2-1.3-11.1-1.2-17.8
		c0.1-6.7,0.5-13.6,1.3-20.8c0.7-7.2,1.6-14.5,2.8-21.8c1.1-7.4,2.3-14.5,3.5-21.3c-3.6,0.2-7,0.4-10.1,0.5
		C164.8,74.1,162.1,74.2,159.9,74.2z"/>
	<path class="st4" d="M335.9,125.4c-0.1,1.7-0.5,4.3-1.2,8c-0.7,3.7-1.6,7.7-2.8,12.1c-1.2,4.4-2.6,9-4.2,13.7
		c-1.6,4.7-3.5,8.9-5.7,12.7s-4.5,6.9-7.1,9.3c-2.6,2.4-5.4,3.5-8.4,3.2c-4.7-0.2-8.4-2.3-11.1-6.1c-2.7-3.8-4.7-8.8-5.9-14.8
		c-1.3-6.1-1.9-12.8-1.8-20.1c0.1-7.4,0.4-14.7,1.1-22c0.7-7.3,1.5-14.2,2.6-20.6c1.1-6.4,2.1-11.7,3.1-15.9
		c0.4-1.6,1.2-2.6,2.6-3.1c1.4-0.5,2.8-0.7,4.3-0.5c1.5,0.2,2.9,0.7,4.1,1.5c1.3,0.8,1.9,1.9,1.9,3.2c-0.1,13.1-0.8,25.2-1.9,36.3
		c-1.1,11.1-2,20.8-2.7,29c-0.7,8.2-0.8,14.6-0.4,19.4c0.4,4.8,2.1,7.4,4.9,7.7c2.2,0.4,4.2-0.5,6.1-2.6c1.9-2.1,3.7-4.9,5.4-8.3
		c1.7-3.4,3.2-7.3,4.6-11.5c1.4-4.3,2.5-8.4,3.5-12.4c1-4,1.7-7.7,2.3-11c0.6-3.3,1-5.7,1.3-7.1c0.1-1,0.5-1.7,1.1-2.2
		c0.6-0.5,1.2-0.7,1.9-0.7c0.7,0,1.2,0.2,1.7,0.7C335.9,123.7,336,124.4,335.9,125.4z M298.3,64.6c0-1.4,0.4-2.6,1.3-3.6
		c0.9-1,2-1.4,3.3-1.4c1.4,0,2.6,0.5,3.6,1.4c1,1,1.4,2.2,1.4,3.6c0,1.3-0.5,2.4-1.4,3.3c-1,0.9-2.2,1.3-3.6,1.3
		c-1.3,0-2.4-0.4-3.3-1.3S298.3,65.9,298.3,64.6z"/>
	<path class="st4" d="M406.8,66.8c0.8,0.1,1.4,0.5,1.7,1.2c0.3,0.7,0.4,1.3,0.4,2c-0.1,0.7-0.4,1.2-0.9,1.7
		c-0.5,0.5-1.2,0.6-2.1,0.4c-5.3-0.8-12-1.5-20.1-1.9c-8.1-0.4-16.6-0.7-25.6-1c-0.5,7.3-1.1,14.7-2,22.3
		c-0.8,7.6-1.7,14.9-2.6,22.1s-1.7,14-2.5,20.3c-0.8,6.4-1.3,12-1.5,16.9c-0.2,4.9-0.1,8.9,0.4,12c0.5,3.1,1.6,4.8,3.3,5.3
		c2.2,0.6,4.5-0.3,7-2.7c2.5-2.4,5-5.7,7.4-9.9c2.4-4.2,4.6-9,6.6-14.4c2-5.4,3.6-10.8,4.9-16.2c0.2-1,0.7-1.6,1.3-2
		c0.6-0.4,1.2-0.4,1.9-0.3c0.7,0.2,1.2,0.6,1.5,1.3c0.4,0.7,0.5,1.5,0.4,2.4c-1.2,5.4-2.8,11.1-4.9,17.2c-2.1,6.1-4.6,11.6-7.6,16.5
		c-2.9,5-6.2,8.9-9.9,11.8c-3.7,2.9-7.5,3.8-11.6,2.9c-4-1-7-3.3-9.2-6.9c-2.2-3.7-3.7-8.3-4.5-13.8c-0.8-5.6-1.1-11.8-0.9-18.8
		c0.2-7,0.8-14.2,1.6-21.7c0.8-7.5,1.9-15,3.1-22.7c1.2-7.6,2.4-14.8,3.6-21.7c-6.8,0-13.3,0.1-19.3,0.2c-6.1,0.1-11.2,0.4-15.4,0.7
		c-1.1,0.2-1.9,0.1-2.5-0.4c-0.6-0.5-1-1.1-1.1-1.8c-0.1-0.7,0-1.4,0.4-2c0.4-0.6,1.2-1,2.2-1.1c5.2-0.5,10.8-0.9,17-1.2
		c6.2-0.3,12.7-0.5,19.5-0.5l2.5-15.3c0.2-1.4,0.9-2.5,2.1-3.2c1.1-0.7,2.4-1.1,3.7-1.2c1.3-0.1,2.5,0.3,3.6,1
		c1.1,0.7,1.7,1.9,1.8,3.4c0.1,2.4,0.1,4.9,0.1,7.5c-0.1,2.6-0.2,5.2-0.3,7.8c8.5,0.2,16.8,0.6,24.8,1.2
		C393.2,64.9,400.4,65.7,406.8,66.8z"/>
	<path class="st4" d="M436.4,125.4c-0.1,1.7-0.5,4.3-1.2,8c-0.7,3.7-1.6,7.7-2.8,12.1c-1.2,4.4-2.6,9-4.2,13.7
		c-1.6,4.7-3.5,8.9-5.7,12.7s-4.5,6.9-7.1,9.3c-2.6,2.4-5.4,3.5-8.4,3.2c-4.7-0.2-8.4-2.3-11.1-6.1c-2.7-3.8-4.7-8.8-5.9-14.8
		c-1.3-6.1-1.9-12.8-1.8-20.1c0.1-7.4,0.4-14.7,1.1-22c0.7-7.3,1.5-14.2,2.6-20.6c1.1-6.4,2.1-11.7,3.1-15.9
		c0.4-1.6,1.2-2.6,2.6-3.1c1.4-0.5,2.8-0.7,4.3-0.5c1.5,0.2,2.9,0.7,4.1,1.5c1.3,0.8,1.9,1.9,1.9,3.2c-0.1,13.1-0.8,25.2-1.9,36.3
		c-1.1,11.1-2,20.8-2.7,29c-0.7,8.2-0.8,14.6-0.4,19.4c0.4,4.8,2.1,7.4,4.9,7.7c2.2,0.4,4.2-0.5,6.1-2.6c1.9-2.1,3.7-4.9,5.4-8.3
		c1.7-3.4,3.2-7.3,4.6-11.5c1.4-4.3,2.5-8.4,3.5-12.4c1-4,1.7-7.7,2.3-11c0.6-3.3,1-5.7,1.3-7.1c0.1-1,0.5-1.7,1.1-2.2
		c0.6-0.5,1.2-0.7,1.9-0.7c0.7,0,1.2,0.2,1.7,0.7C436.4,123.7,436.6,124.4,436.4,125.4z M398.8,64.6c0-1.4,0.4-2.6,1.3-3.6
		c0.9-1,2-1.4,3.3-1.4c1.4,0,2.6,0.5,3.6,1.4c1,1,1.4,2.2,1.4,3.6c0,1.3-0.5,2.4-1.4,3.3c-1,0.9-2.2,1.3-3.6,1.3
		c-1.3,0-2.4-0.4-3.3-1.3S398.8,65.9,398.8,64.6z"/>
</g>
<path class="st0" d="M116.7,77c0,0,30.6-18.5,35-32.4c0,0,5.1-16.4,14.2-19.8"/>
</svg>
