<?xml version="1.0" encoding="utf-8"?>
<!-- Generator: Adobe Illustrator 19.1.0, SVG Export Plug-In . SVG Version: 6.00 Build 0)  -->
<svg version="1.1" id="Calque_1" xmlns="http://www.w3.org/2000/svg" xmlns:xlink="http://www.w3.org/1999/xlink" x="0px" y="0px"
	 viewBox="0 0 256.2 114.7" style="enable-background:new 0 0 256.2 114.7;" xml:space="preserve">
<style type="text/css">
	.st0{fill:#80AE36;}
	.st1{fill:#FFFFFF;}
	.st2{fill:#EC701F;}
	.st3{fill:#F4A110;}
	.st4{fill:#2A4625;}
</style>
<g>
	<path class="st0" d="M85.1,22.3c0,0,0.6-5.3-7.3-15c0,0-4.2-5.5-5-5.7c0,0-0.2-2,1.6-1.3c0,0,6.8,5.2,12.6,21.4
		C86.9,21.7,86.2,22.6,85.1,22.3z"/>
	<path class="st0" d="M76.8,6.8c0,0-0.1,1.5-1.3,3.1c0,0-13.1-7.5-17.7,10.7c-0.9,3.7-0.8,12.3-4.3,14.5c0,0,25.7,2.5,22.9-24.3
		c0,0,1.4-2.5,1.5-3.1L76.8,6.8z"/>
	<path class="st0" d="M80,6.6c0,0,1.7-0.3,2.8,0.2c0,0,14.2-10.4,22,8c0,0-3.2-1.6-8.4,0.7c0,0-11.9,3.5-14.3-8.2
		c0,0-1.7-0.3-2.1-0.1L80,6.6z"/>
</g>
<g>
	<path class="st1" d="M146.7,79.1l86-68.8c0,0,23.3,32.9,6.3,64.5c0,0-29.6,44.3-69.5,30.3C169.5,105.1,153.1,94.8,146.7,79.1z"/>
	<path class="st2" d="M232.8,10.3c0,0,45,32.3,7.9,81c0,0-15.5,24.4-49,23.2c0,0-48-2-45-35.4c0,0,17,44.7,60.1,23.1
		C228.2,91.6,264.1,65.7,232.8,10.3z"/>
	<path class="st3" d="M200.2,45c8-5.7,22-22.7,28.4-27.4c0,0,19.2,4.2,8.4,31.7l-38.3-0.1C198.6,49.3,195.5,48.4,200.2,45z"/>
	<path class="st3" d="M236.6,53c0,0,5.4,18.5-15.9,29.6l-20.6-25c0,0-2.1-4.2,4.2-4.9L236.6,53z"/>
	<path class="st3" d="M185.8,67.8c0,0,0.8-2.4,1.9-3c0,0,0.6-3.2,2.4-3.5c0,0,2-0.5,1.8,4.6l5.3,31.4c0,0-14.9,12.3-21.8,0
		L185.8,67.8z"/>
	<path class="st3" d="M183.5,57.6c0,0-7.2-0.1-14.8,8.3c0,0-11.5,8.3-13.2,11.1c0,0-4,19.9,17,20.2l13.9-36.9
		C186.4,60.3,186.7,57.4,183.5,57.6z"/>
	<path class="st3" d="M200.4,96.7c0,0,10.2,3.4,17.7-11.6c0,0-18.9-24.2-21.2-24.3c0,0-2.9-0.1-2.1,3.5L200.4,96.7z"/>
</g>
<path class="st0" d="M53.4,35.2c0,0,14.2-8.6,16.3-15.1c0,0,2.4-7.6,6.6-9.2"/>
<g>
	<path class="st4" d="M3,32.1c0.1-0.6,0.4-1,1-1.3c0.6-0.3,1.2-0.3,1.9-0.3c0.7,0.1,1.3,0.3,1.9,0.6c0.6,0.3,0.8,0.8,0.8,1.3
		L7.3,50.3c0.9-3,2-5.8,3.2-8.5c1.2-2.7,2.5-4.9,3.9-6.7c1.4-1.8,3-3.1,4.6-3.9c1.6-0.8,3.4-0.8,5.4-0.1c1.7,0.6,2.9,1.8,3.7,3.6
		c0.8,1.8,1.3,3.9,1.4,6.4c0.2,2.5,0.1,5.2-0.3,8.2c-0.3,3-0.8,6-1.3,9.1c-0.5,3.1-1,6.1-1.6,9c-0.6,2.9-1,5.5-1.3,7.9
		c-0.3,2.4-0.5,4.4-0.5,6c0,1.6,0.4,2.6,1,3c0.8,0.4,1.6,0.3,2.4-0.4c0.8-0.7,1.7-1.8,2.5-3.3c0.8-1.5,1.7-3.2,2.5-5.1
		c0.8-2,1.5-4,2.2-6.2c0.6-2.1,1.2-4.2,1.7-6.2c0.5-2,0.8-3.8,1-5.3c0.1-0.4,0.2-0.8,0.5-1c0.3-0.2,0.6-0.3,0.9-0.3
		c0.3,0,0.6,0.2,0.8,0.4c0.2,0.3,0.3,0.6,0.2,1c-0.1,0.9-0.3,2.3-0.7,4.1c-0.4,1.8-0.9,3.9-1.5,6c-0.6,2.2-1.3,4.4-2.2,6.7
		c-0.8,2.3-1.8,4.3-2.8,6.2c-1.1,1.8-2.2,3.3-3.6,4.5c-1.3,1.1-2.7,1.7-4.1,1.5c-2.2-0.2-3.9-1-4.9-2.6c-1.1-1.5-1.7-3.5-2-5.9
		c-0.3-2.4-0.2-5.1,0.2-8.1c0.4-3,0.9-6.1,1.5-9.3c0.6-3.2,1.3-6.4,2-9.5c0.7-3.1,1.3-5.9,1.7-8.5c0.4-2.5,0.5-4.7,0.5-6.4
		c-0.1-1.7-0.6-2.8-1.5-3.3c-1.2-0.6-2.4-0.3-3.6,0.9c-1.2,1.1-2.4,2.9-3.6,5.2c-1.2,2.3-2.3,5.1-3.4,8.4c-1.1,3.3-2.1,6.8-3,10.6
		C8.2,62.2,7.4,66.1,6.7,70C6,74,5.5,77.9,5.2,81.6c0,0.4-0.3,0.8-0.8,1c-0.6,0.2-1.1,0.3-1.8,0.3c-0.6,0-1.2-0.1-1.7-0.3
		c-0.5-0.2-0.8-0.5-0.8-0.9c0-2.6,0.1-5.4,0.2-8.4c0.1-3,0.3-6.2,0.4-9.4c0.2-3.2,0.4-6.4,0.6-9.6c0.2-3.2,0.4-6.2,0.7-9
		c0.2-2.8,0.4-5.4,0.6-7.7C2.7,35.3,2.9,33.5,3,32.1z"/>
	<path class="st4" d="M77.7,58.1c-0.4,1.7-1,3.5-1.5,5.5c-0.6,2-1.3,4-2.1,6.1c-0.8,2-1.6,4-2.5,5.8c-0.9,1.8-1.9,3.4-2.9,4.8
		c-1,1.3-2.1,2.4-3.3,3.1c-1.1,0.7-2.3,0.9-3.6,0.6c-1-0.2-1.9-0.9-2.6-1.9c-0.7-1.1-1.3-2.4-1.7-4.1c-0.4-1.7-0.6-3.7-0.8-6
		c-0.1-2.3-0.1-4.8,0.2-7.5c-0.6,1.6-1.3,3.1-2,4.6c-0.7,1.4-1.5,2.7-2.3,3.7c-0.8,1.1-1.6,1.9-2.5,2.5c-0.9,0.6-1.8,0.9-2.7,0.8
		c-1.8-0.1-3.3-0.8-4.2-1.9c-1-1.2-1.6-2.6-2-4.4c-0.4-1.8-0.5-3.8-0.4-6c0.1-2.2,0.3-4.5,0.6-6.7c0.3-2.2,0.7-4.4,1.2-6.5
		c0.4-2.1,0.8-3.9,1.1-5.4c0.2-0.7,0.5-1.1,1-1.4c0.5-0.3,1-0.4,1.6-0.3c0.6,0.1,1.1,0.3,1.6,0.6c0.5,0.3,0.8,0.8,0.9,1.4
		c0.3,1.5,0.3,3.1,0.2,5c-0.1,1.9-0.4,3.9-0.7,5.9s-0.7,4-1.1,5.9c-0.4,2-0.7,3.7-0.8,5.3s-0.2,2.9,0,4c0.2,1.1,0.7,1.7,1.5,1.8
		c0.7,0.2,1.5-0.3,2.3-1.4c0.8-1.1,1.7-2.6,2.5-4.4c0.8-1.8,1.6-3.9,2.4-6.3c0.8-2.4,1.5-4.8,2.3-7.2c0.7-2.4,1.4-4.8,2-7
		c0.6-2.2,1.1-4.2,1.6-5.8c0.2-0.5,0.5-0.9,1.1-1c0.6-0.2,1.1-0.3,1.8-0.2c0.6,0.1,1.2,0.3,1.7,0.7c0.5,0.4,0.8,0.9,0.8,1.5
		c-0.2,2.6-0.5,5.4-0.9,8.3c-0.4,2.9-0.9,5.8-1.4,8.6c-0.5,2.8-0.9,5.5-1.4,8.2c-0.4,2.6-0.8,5-1,7c-0.2,2-0.3,3.7-0.2,5.1
		c0.1,1.3,0.4,2.1,1,2.4c0.6,0.3,1.3,0.2,2.1-0.5c0.8-0.7,1.6-1.7,2.5-3c0.9-1.3,1.7-2.8,2.6-4.6c0.8-1.8,1.6-3.6,2.4-5.5
		c0.8-1.9,1.4-3.8,2-5.6c0.6-1.8,1-3.5,1.4-4.9c0.1-0.4,0.3-0.8,0.6-0.9c0.3-0.2,0.6-0.2,0.9-0.1c0.3,0.1,0.5,0.3,0.7,0.6
		C77.7,57.3,77.8,57.7,77.7,58.1z"/>
	<path class="st4" d="M73.5,33.8c-0.4,0-0.8-0.1-1-0.4c-0.2-0.3-0.3-0.5-0.4-0.8c0-0.3,0.1-0.6,0.3-0.9c0.2-0.3,0.5-0.4,1-0.4
		c1.2-0.1,2.5-0.2,4.1-0.4c1.6-0.1,3.2-0.3,5-0.4c0.3-1.6,0.5-3.2,0.8-4.7c0.3-1.5,0.5-2.9,0.6-4.2c0.1-0.7,0.4-1.2,1-1.5
		c0.5-0.3,1.1-0.5,1.7-0.5c0.6,0,1.2,0.1,1.7,0.5c0.5,0.3,0.8,0.9,0.8,1.6c0.1,1.3,0.1,2.7,0.1,4.1s-0.1,2.9-0.2,4.4
		c3-0.2,5.7-0.4,8.3-0.5c2.6-0.1,4.5-0.3,5.9-0.4c0.4-0.1,0.7,0,0.9,0.3c0.2,0.3,0.3,0.5,0.3,0.9c0,0.3,0,0.6-0.2,0.9
		c-0.2,0.3-0.4,0.4-0.8,0.5c-0.4,0.1-1.1,0.1-2.1,0.2c-0.9,0.1-2.1,0.2-3.4,0.3c-1.3,0.1-2.7,0.2-4.3,0.4c-1.6,0.1-3.2,0.3-4.8,0.4
		c-0.3,5-0.8,10.1-1.4,15.2c-0.6,5.1-1.1,9.8-1.5,14c-0.4,4.2-0.6,7.8-0.5,10.5c0.1,2.8,0.7,4.4,1.8,4.7c1,0.3,2.1-0.4,3.2-1.9
		c1.1-1.6,2.2-4,3.3-7.2c1.1-3.3,2.1-7.3,3.2-12.2c1-4.9,2-10.5,2.8-16.9c0.1-0.4,0.4-0.8,1-1c0.6-0.2,1.2-0.3,1.8-0.3
		c0.6,0,1.2,0.1,1.7,0.3c0.5,0.2,0.7,0.6,0.6,1c0.6,0.7,1.4,1.2,2.4,1.6c1,0.4,2.2,0.8,3.4,1c1.2,0.3,2.5,0.5,3.8,0.8
		c1.3,0.3,2.5,0.6,3.6,1c1.1,0.4,2.1,0.9,2.8,1.5c0.8,0.6,1.2,1.4,1.4,2.4c0.1,0.9,0,2.5-0.5,4.7c-0.4,2.3-1,4.9-1.6,7.8
		c-0.7,2.9-1.4,6-2.1,9.2c-0.8,3.2-1.4,6.2-1.8,8.8c-0.5,2.7-0.7,4.9-0.8,6.8s0.3,2.8,1,3c0.8,0.2,1.9-0.6,3.1-2.4
		c1.2-1.8,2.5-4.3,3.7-7.2s2.5-6.3,3.7-10c1.2-3.7,2.2-7.3,3-10.8c0.1-0.4,0.3-0.8,0.6-0.9c0.3-0.2,0.6-0.2,0.9-0.1
		c0.3,0.1,0.6,0.3,0.8,0.6c0.2,0.3,0.2,0.7,0.1,1.1c-0.5,2-1.1,4.3-1.8,6.8c-0.7,2.5-1.4,5.1-2.2,7.6c-0.8,2.6-1.7,5-2.7,7.4
		s-2.1,4.4-3.2,6.1c-1.1,1.7-2.3,3-3.6,3.9c-1.3,0.9-2.6,1.1-4,0.8c-2.2-0.6-3.7-2-4.5-4.2c-0.8-2.2-1.1-4.8-1-7.8
		c0.1-3,0.5-6.2,1.3-9.6c0.8-3.4,1.5-6.6,2.4-9.6c0.8-3,1.6-5.6,2.3-7.8s1-3.5,1-4.1c-0.1-0.6-0.5-1-1.3-1.4c-0.8-0.4-1.8-0.7-3-1
		c-1.2-0.3-2.5-0.6-3.9-1c-1.4-0.4-2.6-0.8-3.8-1.4c-1.3,7.5-2.6,13.8-4.1,18.8c-1.4,5-2.9,9-4.5,12c-1.6,3-3.3,5-5,6.1
		c-1.7,1.1-3.5,1.4-5.4,1c-1.7-0.4-3.1-1.4-4.1-3c-1-1.6-1.7-3.6-2.1-6.1c-0.4-2.4-0.6-5.2-0.5-8.3c0.1-3.1,0.3-6.3,0.6-9.7
		s0.8-6.7,1.3-10.2c0.5-3.4,1.1-6.7,1.6-9.9c-1.7,0.1-3.2,0.2-4.7,0.3C75.8,33.8,74.6,33.8,73.5,33.8z"/>
	<path class="st4" d="M155.5,57.7c-0.1,0.8-0.2,2-0.5,3.7c-0.3,1.7-0.7,3.6-1.3,5.7c-0.6,2.1-1.2,4.2-2,6.4
		c-0.8,2.2-1.6,4.1-2.6,5.9c-1,1.8-2.1,3.2-3.3,4.3c-1.2,1.1-2.5,1.6-3.9,1.5c-2.2-0.1-3.9-1.1-5.1-2.8c-1.3-1.8-2.2-4.1-2.8-6.9
		c-0.6-2.8-0.9-5.9-0.8-9.4c0-3.4,0.2-6.8,0.5-10.3c0.3-3.4,0.7-6.6,1.2-9.6c0.5-3,1-5.5,1.4-7.4c0.2-0.7,0.6-1.2,1.2-1.5
		c0.6-0.3,1.3-0.3,2-0.3c0.7,0.1,1.3,0.3,1.9,0.7c0.6,0.4,0.9,0.9,0.9,1.5c-0.1,6.1-0.3,11.7-0.9,16.9c-0.5,5.2-1,9.7-1.3,13.5
		c-0.3,3.8-0.4,6.8-0.2,9c0.2,2.2,1,3.4,2.3,3.6c1,0.2,2-0.2,2.8-1.2c0.9-1,1.7-2.3,2.5-3.9c0.8-1.6,1.5-3.4,2.1-5.4
		c0.6-2,1.2-3.9,1.6-5.8c0.4-1.9,0.8-3.6,1.1-5.1c0.3-1.5,0.5-2.6,0.6-3.3c0.1-0.4,0.2-0.8,0.5-1c0.3-0.2,0.6-0.3,0.9-0.3
		c0.3,0,0.6,0.1,0.8,0.3C155.4,56.9,155.5,57.3,155.5,57.7z M138,29.4c0-0.7,0.2-1.2,0.6-1.7c0.4-0.4,0.9-0.7,1.5-0.7
		c0.7,0,1.2,0.2,1.7,0.7c0.4,0.4,0.7,1,0.7,1.7c0,0.6-0.2,1.1-0.7,1.5c-0.4,0.4-1,0.6-1.7,0.6c-0.6,0-1.1-0.2-1.5-0.6
		C138.2,30.5,138,30,138,29.4z"/>
	<path class="st4" d="M188.4,30.4c0.4,0.1,0.7,0.2,0.8,0.5c0.1,0.3,0.2,0.6,0.2,0.9c0,0.3-0.2,0.6-0.4,0.8c-0.3,0.2-0.6,0.3-1,0.2
		c-2.5-0.4-5.6-0.7-9.3-0.9c-3.8-0.2-7.7-0.3-11.9-0.5c-0.2,3.4-0.5,6.9-0.9,10.4c-0.4,3.5-0.8,6.9-1.2,10.3
		c-0.4,3.3-0.8,6.5-1.2,9.5c-0.4,3-0.6,5.6-0.7,7.9c-0.1,2.3,0,4.1,0.2,5.6c0.3,1.4,0.8,2.2,1.5,2.5c1,0.3,2.1-0.1,3.3-1.3
		c1.2-1.1,2.3-2.7,3.4-4.6c1.1-2,2.1-4.2,3.1-6.7c0.9-2.5,1.7-5,2.3-7.5c0.1-0.4,0.3-0.8,0.6-0.9c0.3-0.2,0.6-0.2,0.9-0.1
		c0.3,0.1,0.5,0.3,0.7,0.6c0.2,0.3,0.2,0.7,0.2,1.1c-0.6,2.5-1.3,5.2-2.3,8c-1,2.8-2.1,5.4-3.5,7.7c-1.4,2.3-2.9,4.1-4.6,5.5
		c-1.7,1.3-3.5,1.8-5.4,1.3c-1.8-0.4-3.3-1.5-4.3-3.2c-1-1.7-1.7-3.9-2.1-6.4c-0.4-2.6-0.5-5.5-0.4-8.7c0.1-3.2,0.4-6.6,0.8-10.1
		c0.4-3.5,0.9-7,1.4-10.5c0.6-3.5,1.1-6.9,1.7-10.1c-3.2,0-6.2,0-9,0.1c-2.8,0.1-5.2,0.2-7.2,0.3c-0.5,0.1-0.9,0.1-1.2-0.2
		c-0.3-0.2-0.4-0.5-0.5-0.8c-0.1-0.3,0-0.6,0.2-0.9c0.2-0.3,0.5-0.4,1-0.5c2.4-0.2,5-0.4,7.9-0.5c2.9-0.1,5.9-0.2,9.1-0.2l1.2-7.1
		c0.1-0.7,0.4-1.2,1-1.5c0.5-0.3,1.1-0.5,1.7-0.5c0.6,0,1.2,0.1,1.7,0.5c0.5,0.3,0.8,0.9,0.8,1.6c0.1,1.1,0.1,2.3,0,3.5
		c0,1.2-0.1,2.4-0.1,3.6c4,0.1,7.8,0.3,11.6,0.5C182.1,29.5,185.5,29.9,188.4,30.4z"/>
	<path class="st4" d="M182.7,42.6c0.1-0.4,0.3-0.8,0.8-1.1c0.4-0.3,0.9-0.5,1.4-0.5c0.5-0.1,1,0,1.5,0.2c0.5,0.2,0.8,0.5,0.9,1
		c0.3,1.3,0.5,2.8,0.5,4.5c0,1.7-0.2,3.5-0.4,5.3c-0.2,1.8-0.5,3.6-0.8,5.4c-0.3,1.8-0.5,3.3-0.5,4.7c-0.1,1.4,0,2.5,0.1,3.3
		c0.2,0.8,0.6,1.2,1.3,1c0.9-0.1,1.8-0.7,2.6-1.8c0.9-1.1,1.7-2.5,2.5-4.1c0.8-1.6,1.5-3.5,2.2-5.4c0.7-2,1.3-3.9,1.8-5.8
		c0.6-1.9,1-3.6,1.4-5.1c0.4-1.5,0.7-2.7,0.8-3.5c0.2-0.7,0.6-1.1,1.2-1.4c0.6-0.3,1.3-0.4,1.9-0.4c0.7,0,1.3,0.2,1.8,0.5
		c0.6,0.3,0.8,0.8,0.8,1.5c-0.1,4.8-0.3,9.3-0.8,13.4c-0.4,4.2-1.1,8-1.8,11.4c1.8-1.2,3.6-2.6,5.4-4s3.4-3,4.8-4.6
		c0.2-0.3,0.5-0.5,0.9-0.5c0.4,0,0.7,0,0.9,0.2s0.4,0.4,0.5,0.8c0.1,0.3,0,0.7-0.4,1.1c-1.7,2.1-3.7,4.1-6,5.8
		c-2.3,1.8-4.6,3.4-6.9,4.8c-0.9,3.1-1.9,5.8-2.9,8c-1.1,2.2-2.2,4-3.5,5.3c-2,2-3.8,3-5.4,3.1c-1.7,0.1-3-0.3-3.9-1.2
		s-1.3-2.2-1.3-3.8s0.9-3.2,2.5-4.7c0.9-0.9,2.1-1.9,3.6-2.8c1.4-0.9,3-2,4.7-3c0.4-1.6,0.8-3.2,1.1-5c0.3-1.8,0.6-3.7,0.9-5.6
		c-0.7,1.8-1.6,3.3-2.6,4.6c-1,1.3-2,2.4-3.1,3.2c-1.1,0.8-2.1,1.4-3.2,1.7c-1.1,0.3-2,0.4-2.9,0.3c-1.6-0.2-2.7-0.8-3.5-2
		c-0.8-1.1-1.3-2.5-1.5-4.2c-0.2-1.6-0.3-3.5-0.1-5.5c0.2-2,0.4-4,0.8-5.9c0.3-1.9,0.7-3.7,1-5.3C182.2,44.9,182.5,43.6,182.7,42.6z
		 M187.8,78c-0.8,0.9-1.2,1.7-1.3,2.5c-0.1,0.8,0,1.3,0.3,1.7c0.3,0.4,0.8,0.6,1.4,0.5c0.6,0,1.2-0.4,1.8-1c1.5-1.6,2.8-4.3,3.9-8.2
		c-1.3,0.8-2.5,1.6-3.6,2.4C189.3,76.6,188.5,77.3,187.8,78z"/>
</g>
</svg>
